<?xml version="1.0" standalone="no"?>
<!DOCTYPE svg PUBLIC "-//W3C//DTD SVG 20010904//EN"
 "http://www.w3.org/TR/2001/REC-SVG-20010904/DTD/svg10.dtd">
<svg version="1.0" xmlns="http://www.w3.org/2000/svg"
 width="16.000000pt" height="16.000000pt" viewBox="0 0 16.000000 16.000000"
 preserveAspectRatio="xMidYMid meet">
<metadata>
Created by potrace 1.11, written by Peter Selinger 2001-2013
</metadata>
<g transform="translate(0.000000,16.000000) scale(0.005333,-0.005333)"
fill="#000000" stroke="none">
<path d="M651 1790 c-82 -8 -79 -30 3 -30 51 0 66 3 66 14 0 20 -7 22 -69 16z"/>
<path d="M643 1733 c-49 -4 -53 -6 -53 -29 0 -23 3 -24 66 -24 65 0 65 0 62
27 -3 30 -4 30 -75 26z"/>
<path d="M435 1660 c-11 -18 1 -23 62 -24 45 -1 58 2 58 14 0 19 -109 28 -120
10z"/>
<path d="M1160 1663 c-13 -3 -15 -24 -12 -134 3 -106 0 -135 -13 -155 -13 -20
-13 -24 -1 -24 32 0 41 32 46 172 3 77 3 141 0 142 -3 1 -12 1 -20 -1z"/>
<path d="M1693 1658 c-5 -10 -3 -10 75 -8 34 1 62 -2 62 -6 0 -4 -29 -53 -65
-109 -36 -56 -65 -107 -65 -114 0 -7 29 -11 89 -11 72 0 90 3 95 16 12 31 6
35 -20 15 -26 -20 -111 -30 -127 -15 -3 3 26 55 64 115 38 61 69 113 69 117 0
9 -171 9 -177 0z"/>
<path d="M763 1648 c2 -9 24 -13 62 -13 38 0 60 4 63 13 3 9 -14 12 -63 12
-49 0 -66 -3 -62 -12z"/>
<path d="M590 1491 l0 -158 38 -7 c20 -3 49 -6 65 -6 l27 0 0 165 0 165 -65 0
-65 0 0 -159z"/>
<path d="M1476 1621 c-3 -5 23 -6 60 -3 l66 5 -15 -29 c-9 -16 -39 -63 -66
-104 l-51 -75 82 -3 c46 -2 86 2 91 7 17 17 2 22 -27 11 -30 -11 -89 -14 -99
-4 -3 4 21 46 54 95 32 48 59 93 59 99 0 12 -146 14 -154 1z"/>
<path d="M1920 1613 c0 -13 3 -14 12 -5 15 15 108 16 108 2 0 -6 -27 -51 -60
-100 -33 -49 -60 -92 -60 -95 0 -3 39 -4 87 -3 63 2 88 7 91 17 4 10 0 12 -14
6 -31 -12 -111 -18 -117 -8 -3 5 21 50 53 99 33 49 60 92 60 97 0 4 -36 7 -80
7 -69 0 -80 -2 -80 -17z"/>
<path d="M1309 1573 c-12 -27 -34 -74 -50 -105 l-28 -58 26 0 c16 0 23 5 20
13 -2 6 -1 22 4 35 7 18 16 22 54 22 38 0 47 -4 54 -22 5 -13 6 -29 4 -35 -4
-9 5 -13 23 -13 l29 0 -50 105 c-27 58 -53 105 -57 105 -4 0 -17 -21 -29 -47z
m44 -20 c2 -10 8 -26 12 -35 6 -15 2 -18 -28 -18 l-35 0 11 35 c11 37 31 46
40 18z"/>
<path d="M432 1578 c3 -21 9 -23 66 -26 61 -3 62 -2 62 23 0 24 -2 25 -66 25
-62 0 -65 -1 -62 -22z"/>
<path d="M770 1575 c0 -24 3 -25 60 -25 57 0 60 1 60 25 0 24 -3 25 -60 25
-57 0 -60 -1 -60 -25z"/>
<path d="M434 1517 c-2 -7 -4 -52 -2 -98 l3 -84 63 -3 63 -3 -3 98 -3 98 -58
3 c-42 2 -59 -1 -63 -11z"/>
<path d="M777 1524 c-4 -4 -7 -50 -7 -101 l0 -94 58 3 57 3 0 95 0 95 -50 3
c-28 2 -54 0 -58 -4z"/>
<path d="M385 1280 c9 -14 2065 -14 2065 0 0 7 -352 10 -1036 10 -687 0 -1033
-3 -1029 -10z"/>
</g>
</svg>
